<mxfile host="app.diagrams.net" modified="2020-04-29T09:07:22.603Z" agent="5.0 (X11)" etag="WUqauyGyTg4WQSlXUVEJ" version="13.0.2" type="github">
  <diagram id="M-wn_vuei_UL71HifMNO" name="Page-1">
    <mxGraphModel dx="795" dy="464" grid="1" gridSize="10" guides="1" tooltips="1" connect="1" arrows="1" fold="1" page="1" pageScale="1" pageWidth="1169" pageHeight="827" math="0" shadow="0">
      <root>
        <mxCell id="0" />
        <mxCell id="1" parent="0" />
        <mxCell id="oChWMdUvNmHhgxfBxgCT-6" value="MZ Cluster" style="rounded=1;whiteSpace=wrap;html=1;labelPosition=center;verticalLabelPosition=top;align=center;verticalAlign=bottom;fontSize=15;strokeWidth=3;" parent="1" vertex="1">
          <mxGeometry x="530" y="40" width="460" height="340" as="geometry" />
        </mxCell>
        <mxCell id="oChWMdUvNmHhgxfBxgCT-2" value="Console VM" style="rounded=0;whiteSpace=wrap;html=1;labelPosition=center;verticalLabelPosition=top;align=center;verticalAlign=bottom;fontSize=16;strokeWidth=3;" parent="1" vertex="1">
          <mxGeometry x="64" y="380" width="250" height="110" as="geometry" />
        </mxCell>
        <mxCell id="oChWMdUvNmHhgxfBxgCT-10" value="DMZ Cluster&lt;br style=&quot;font-size: 15px;&quot;&gt;" style="rounded=1;whiteSpace=wrap;html=1;labelPosition=center;verticalLabelPosition=top;align=center;verticalAlign=bottom;fontSize=15;strokeWidth=4;" parent="1" vertex="1">
          <mxGeometry x="536" y="520" width="460" height="240" as="geometry" />
        </mxCell>
        <mxCell id="oChWMdUvNmHhgxfBxgCT-18" value="" style="endArrow=classic;html=1;exitX=1;exitY=0.5;exitDx=0;exitDy=0;entryX=0;entryY=0.5;entryDx=0;entryDy=0;" parent="1" source="oChWMdUvNmHhgxfBxgCT-2" target="oChWMdUvNmHhgxfBxgCT-6" edge="1">
          <mxGeometry width="50" height="50" relative="1" as="geometry">
            <mxPoint x="404" y="360" as="sourcePoint" />
            <mxPoint x="454" y="310" as="targetPoint" />
          </mxGeometry>
        </mxCell>
        <mxCell id="oChWMdUvNmHhgxfBxgCT-20" value="" style="endArrow=classic;html=1;exitX=1;exitY=0.5;exitDx=0;exitDy=0;entryX=-0.007;entryY=0.557;entryDx=0;entryDy=0;entryPerimeter=0;" parent="1" source="oChWMdUvNmHhgxfBxgCT-2" target="oChWMdUvNmHhgxfBxgCT-10" edge="1">
          <mxGeometry width="50" height="50" relative="1" as="geometry">
            <mxPoint x="244" y="410" as="sourcePoint" />
            <mxPoint x="454" y="360" as="targetPoint" />
          </mxGeometry>
        </mxCell>
        <mxCell id="oChWMdUvNmHhgxfBxgCT-27" value="" style="shape=cylinder;whiteSpace=wrap;html=1;boundedLbl=1;backgroundOutline=1;fontSize=15;" parent="1" vertex="1">
          <mxGeometry x="882" y="210.25" width="11.75" height="13.5" as="geometry" />
        </mxCell>
        <mxCell id="oChWMdUvNmHhgxfBxgCT-28" value="" style="verticalLabelPosition=bottom;html=1;verticalAlign=top;align=center;strokeColor=none;fillColor=#00BEF2;shape=mxgraph.azure.git_repository;fontSize=15;" parent="1" vertex="1">
          <mxGeometry x="779.5" y="193.75" width="40" height="32.5" as="geometry" />
        </mxCell>
        <mxCell id="oChWMdUvNmHhgxfBxgCT-29" value="" style="html=1;dashed=0;whitespace=wrap;fillColor=#2875E2;strokeColor=#ffffff;points=[[0.005,0.63,0],[0.1,0.2,0],[0.9,0.2,0],[0.5,0,0],[0.995,0.63,0],[0.72,0.99,0],[0.5,1,0],[0.28,0.99,0]];shape=mxgraph.kubernetes.icon;prIcon=pod;fontSize=15;" parent="1" vertex="1">
          <mxGeometry x="926" y="131.25" width="36" height="26" as="geometry" />
        </mxCell>
        <mxCell id="oChWMdUvNmHhgxfBxgCT-30" value="" style="html=1;dashed=0;whitespace=wrap;fillColor=#2875E2;strokeColor=#ffffff;points=[[0.005,0.63,0],[0.1,0.2,0],[0.9,0.2,0],[0.5,0,0],[0.995,0.63,0],[0.72,0.99,0],[0.5,1,0],[0.28,0.99,0]];shape=mxgraph.kubernetes.icon;prIcon=pod;fontSize=15;" parent="1" vertex="1">
          <mxGeometry x="562.5" y="95.75" width="36" height="26" as="geometry" />
        </mxCell>
        <mxCell id="oChWMdUvNmHhgxfBxgCT-31" value="" style="html=1;dashed=0;whitespace=wrap;fillColor=#2875E2;strokeColor=#ffffff;points=[[0.005,0.63,0],[0.1,0.2,0],[0.9,0.2,0],[0.5,0,0],[0.995,0.63,0],[0.72,0.99,0],[0.5,1,0],[0.28,0.99,0]];shape=mxgraph.kubernetes.icon;prIcon=pod;fontSize=15;" parent="1" vertex="1">
          <mxGeometry x="864.75" y="72.25" width="46" height="26" as="geometry" />
        </mxCell>
        <mxCell id="oChWMdUvNmHhgxfBxgCT-34" value="" style="html=1;dashed=0;whitespace=wrap;fillColor=#2875E2;strokeColor=#ffffff;points=[[0.005,0.63,0],[0.1,0.2,0],[0.9,0.2,0],[0.5,0,0],[0.995,0.63,0],[0.72,0.99,0],[0.5,1,0],[0.28,0.99,0]];shape=mxgraph.kubernetes.icon;prIcon=pod;fontSize=15;" parent="1" vertex="1">
          <mxGeometry x="598.5" y="95.75" width="46" height="26" as="geometry" />
        </mxCell>
        <mxCell id="oChWMdUvNmHhgxfBxgCT-35" value="" style="html=1;dashed=0;whitespace=wrap;fillColor=#2875E2;strokeColor=#ffffff;points=[[0.005,0.63,0],[0.1,0.2,0],[0.9,0.2,0],[0.5,0,0],[0.995,0.63,0],[0.72,0.99,0],[0.5,1,0],[0.28,0.99,0]];shape=mxgraph.kubernetes.icon;prIcon=pod;fontSize=15;" parent="1" vertex="1">
          <mxGeometry x="638.5" y="93.75" width="46" height="26" as="geometry" />
        </mxCell>
        <mxCell id="oChWMdUvNmHhgxfBxgCT-38" value="&lt;font style=&quot;font-size: 12px&quot;&gt;Config Repo&lt;/font&gt;" style="text;html=1;strokeColor=none;fillColor=none;align=center;verticalAlign=middle;whiteSpace=wrap;rounded=0;fontSize=15;" parent="1" vertex="1">
          <mxGeometry x="767.25" y="226.25" width="72.75" height="16" as="geometry" />
        </mxCell>
        <mxCell id="oChWMdUvNmHhgxfBxgCT-42" value="" style="html=1;dashed=0;whitespace=wrap;fillColor=#2875E2;strokeColor=#ffffff;points=[[0.005,0.63,0],[0.1,0.2,0],[0.9,0.2,0],[0.5,0,0],[0.995,0.63,0],[0.72,0.99,0],[0.5,1,0],[0.28,0.99,0]];shape=mxgraph.kubernetes.icon;prIcon=pod;fontSize=15;" parent="1" vertex="1">
          <mxGeometry x="781.5" y="131.25" width="36" height="26" as="geometry" />
        </mxCell>
        <mxCell id="oChWMdUvNmHhgxfBxgCT-43" value="&lt;font style=&quot;font-size: 12px&quot;&gt;Config server&lt;/font&gt;" style="text;html=1;strokeColor=none;fillColor=none;align=center;verticalAlign=middle;whiteSpace=wrap;rounded=0;fontSize=15;" parent="1" vertex="1">
          <mxGeometry x="747.25" y="98.25" width="104.5" height="40" as="geometry" />
        </mxCell>
        <mxCell id="oChWMdUvNmHhgxfBxgCT-45" value="" style="endArrow=classic;html=1;fontSize=15;entryX=0.5;entryY=1;entryDx=0;entryDy=0;exitX=0.5;exitY=0;exitDx=0;exitDy=0;exitPerimeter=0;entryPerimeter=0;" parent="1" source="oChWMdUvNmHhgxfBxgCT-28" target="oChWMdUvNmHhgxfBxgCT-42" edge="1">
          <mxGeometry width="50" height="50" relative="1" as="geometry">
            <mxPoint x="794" y="197.25" as="sourcePoint" />
            <mxPoint x="844" y="147.25" as="targetPoint" />
          </mxGeometry>
        </mxCell>
        <mxCell id="oChWMdUvNmHhgxfBxgCT-46" value="&lt;font style=&quot;font-size: 12px&quot;&gt;Postgres&lt;/font&gt;" style="text;html=1;strokeColor=none;fillColor=none;align=center;verticalAlign=middle;whiteSpace=wrap;rounded=0;fontSize=15;" parent="1" vertex="1">
          <mxGeometry x="818" y="108.25" width="104.5" height="20" as="geometry" />
        </mxCell>
        <mxCell id="oChWMdUvNmHhgxfBxgCT-47" value="" style="html=1;dashed=0;whitespace=wrap;fillColor=#2875E2;strokeColor=#ffffff;points=[[0.005,0.63,0],[0.1,0.2,0],[0.9,0.2,0],[0.5,0,0],[0.995,0.63,0],[0.72,0.99,0],[0.5,1,0],[0.28,0.99,0]];shape=mxgraph.kubernetes.icon;prIcon=pod;fontSize=15;" parent="1" vertex="1">
          <mxGeometry x="852.25" y="131.25" width="36" height="26" as="geometry" />
        </mxCell>
        <mxCell id="odyYIFGlpL0yZpM5AvX--4" value="" style="image;html=1;labelBackgroundColor=#ffffff;image=img/lib/clip_art/general/Empty_Folder_128x128.png" parent="1" vertex="1">
          <mxGeometry x="842.25" y="199" width="46" height="27" as="geometry" />
        </mxCell>
        <mxCell id="odyYIFGlpL0yZpM5AvX--10" value="" style="endArrow=classic;html=1;entryX=0.628;entryY=0.042;entryDx=0;entryDy=0;entryPerimeter=0;" parent="1" target="odyYIFGlpL0yZpM5AvX--4" edge="1">
          <mxGeometry width="50" height="50" relative="1" as="geometry">
            <mxPoint x="871" y="157.25" as="sourcePoint" />
            <mxPoint x="884" y="187.25" as="targetPoint" />
          </mxGeometry>
        </mxCell>
        <mxCell id="OJW5nVKdZVnXqIisglxK-44" style="edgeStyle=orthogonalEdgeStyle;rounded=0;orthogonalLoop=1;jettySize=auto;html=1;entryX=0.25;entryY=0;entryDx=0;entryDy=0;" parent="1" source="odyYIFGlpL0yZpM5AvX--12" target="OJW5nVKdZVnXqIisglxK-26" edge="1">
          <mxGeometry relative="1" as="geometry">
            <Array as="points">
              <mxPoint x="104" y="480" />
              <mxPoint x="722" y="480" />
            </Array>
          </mxGeometry>
        </mxCell>
        <mxCell id="odyYIFGlpL0yZpM5AvX--12" value="" style="aspect=fixed;perimeter=ellipsePerimeter;html=1;align=center;shadow=0;dashed=0;spacingTop=3;image;image=img/lib/active_directory/web_server.svg;" parent="1" vertex="1">
          <mxGeometry x="84" y="420" width="40" height="50" as="geometry" />
        </mxCell>
        <mxCell id="OJW5nVKdZVnXqIisglxK-43" style="edgeStyle=orthogonalEdgeStyle;rounded=0;orthogonalLoop=1;jettySize=auto;html=1;exitX=0.5;exitY=1;exitDx=0;exitDy=0;entryX=0;entryY=0.25;entryDx=0;entryDy=0;" parent="1" source="odyYIFGlpL0yZpM5AvX--15" target="OJW5nVKdZVnXqIisglxK-25" edge="1">
          <mxGeometry relative="1" as="geometry">
            <Array as="points">
              <mxPoint x="94" y="339" />
            </Array>
          </mxGeometry>
        </mxCell>
        <mxCell id="odyYIFGlpL0yZpM5AvX--15" value="Nginx" style="text;html=1;strokeColor=none;fillColor=none;align=center;verticalAlign=middle;whiteSpace=wrap;rounded=0;fontSize=14;" parent="1" vertex="1">
          <mxGeometry x="74" y="400" width="40" height="20" as="geometry" />
        </mxCell>
        <mxCell id="odyYIFGlpL0yZpM5AvX--16" value="" style="aspect=fixed;pointerEvents=1;shadow=0;dashed=0;html=1;strokeColor=none;labelPosition=center;verticalLabelPosition=bottom;verticalAlign=top;align=center;fillColor=#00188D;shape=mxgraph.azure.laptop;fontSize=14;" parent="1" vertex="1">
          <mxGeometry x="64" y="593" width="66.67" height="40" as="geometry" />
        </mxCell>
        <mxCell id="odyYIFGlpL0yZpM5AvX--17" value="" style="endArrow=classic;html=1;fontSize=14;exitX=0.5;exitY=0;exitDx=0;exitDy=0;exitPerimeter=0;" parent="1" source="odyYIFGlpL0yZpM5AvX--16" edge="1">
          <mxGeometry width="50" height="50" relative="1" as="geometry">
            <mxPoint x="220" y="540" as="sourcePoint" />
            <mxPoint x="97" y="491" as="targetPoint" />
          </mxGeometry>
        </mxCell>
        <mxCell id="odyYIFGlpL0yZpM5AvX--18" value="Public access domain name" style="text;html=1;strokeColor=none;fillColor=none;align=center;verticalAlign=middle;whiteSpace=wrap;rounded=0;fontSize=14;" parent="1" vertex="1">
          <mxGeometry x="99" y="500" width="101" height="20" as="geometry" />
        </mxCell>
        <mxCell id="odyYIFGlpL0yZpM5AvX--21" value="" style="shape=image;aspect=fixed;image=data:image/png,iVBORw0KGgoAAAANSUhEUgAAAGYAAAB+CAMAAADhhJSmAAAAbFBMVEUaGRj///8AAAAYFxa0tLT09PQSERDb29v7+/sVFBPFxcVkZGSvr6/39/fp6emlpaWJiYlLS0pzc3PU1NSenp6YmJhfX18MCgiQkJDi4uKBgYHOzs57e3u9vb1FRUUoJydSUlIwLy87OjohISBW7zFJAAAHoklEQVRoge2b2YKiOhBAQyFRUHYFbVQW//8fb0JSYRFI2e19m7zMMBJOlkptqWEOuXn5Lk6yoknTpsh+zqcgovdltNeqcwF9Kzn3fc7Lsn96Xh+Hb2HC3VF+ny00LlExYVZWTHBcQYxQz51tTtuYQ/zaZhhSsj2lLUx4KcG3Q2RzAbIt0AYm5uDSIH0DuHufY4KWOpMBxOMPMV4G/EOIaD6k+08wQQ2fQ2QrYXlCi5jrb6aimgvHkIYJi19ORTVoFxbuHXPr/kQRC8cfdkxeE87jdvPhZMNU7NfbMjT3TRBmmMr/AmWBM8Xk35iL4pzWMVH9JYrkBGuYw/PPuz80n+9XMEeaJEuzSXitbMNFzJlIuQdBRnkVjkuYnKb2YUce0kjcBkxH2v6yUW+3BCvhwu0NkxCXTAvQibQ9zzlmT6P4+H5IWmJzerBbSpNlOOP47pRx+aU3wTyIWhmMuadNH34mmJZ2/MtskNEnqQtEI8yOOpl8wND6QDbC1DQnhnfOqHFSJzWdHhNQJzNRu1fadBKDIYqZC8pVjpQc3EgY1YmR38eBCU2jlUhDGl2/BIw8e9FBq3a3VX/S1po/NYa2l6xM1ddzQB5NcqQQMNmNRGGg/aKshLv6W0wTgnOPuRDVma++fRCva1nwSopik8eA0XQ6G9SZnAJaEpJ5YxAKjEebjKvVRr8hfovbRMI8BIaoNcti/GXUOiRbKA4Co24NVOrD9/6wlPcPFJvYHOakJE3L20EAeqpyWw6MZN0EhjgZvelonPGZZNvhxmgS4HLtdKFY+rV63lOMNTwY0Qre8avmXyq6YoMTowkaStbgAaAhpSg2uDKaJ5ROBaDv65EVW3lnJL2E6mz8MmoFggPKC0Y5Nv7rgCs0SD8KQeRbhcBPGUUi4eroFrXD6ygE9kDC79iPXVLc0vjC44+iEFRWjNtSMKjOcH9wkVAIrIpNYAiLNo3vxOj1yFAIrMLqdszuCEy9M7lBT9UHzYH3ssi0/2R2eUT1tU8MSJ9SnKbNbRcCbZ8x0/YsgcykNE+9ZJc67LNZtzJjVouhvWAZ0cDTJBrzPhWGFtWi2CBhVjuL6kyOp2QVcrxG+gQX9WBRjBCzyLauWp05jVwmfxS2JuCiEITbbgvsrGZNRc7GBLgYGPXz4ygE2/IKe+Z0mwPxaw/Hjn1SE7HlHcb+N76l2KSR/tkeiJbicPD8gJk0iVegEBw3hEA4kmz7DLvlfhAAbBwXUk5SD2PLugnlx7bDDqPOmrHecgeV7QTaxdkIRUXoIZzbLacBt3g+lvf87IZ5FAvLNlUF7w4zATBd29sUE73WRuu7vau+sax4/MJ3r68sZ/nZ1dFKKZJh1OqquX70LgBmkEPGQ0n3KiZXmNXwAdWZUyyKK2STDVpRbH1cJDGrVhat/ZowQje+s1lRwv3C9wH7ilky6mzVwpZuNWC8ZcXWH2C2IYyoJsN16zhWpcv6RJ28HnNYFAK/1kuyqebhx9i6xcVXdkTlbBYVrNHFywJgXjOqdOlkcJUgVBhvaToY/duSIPDShm9JYrUU6XzagovLUZ1ZXSyuUkZLOhh9fExC+m+77Lfps28WSD/mIo4XL5dwRRCzIPQuV42UYli+6sXoa0gQ09JJnzUfwjkm+uguldbAaNchq04K2z6jDAnY0VUE8cKD3PjrsIQ5vL52SSSbC6MLnPH9ze2r2zPJv04uvYIvciBx1jDEdB+JkjnrGGo6yk45OluYL3HmlPfL4vMX9me2YksYod0+rXp4oyRvH124yM/LP6k3f6kyYaksIWr+sEHg5gufXC6y+HX5gwvHxfKUlZKRqv3VhGCllGO1ACZMKOVC08bhuFbSs17Ocys+WzkfumD1Y1vFSVVDnxGH9rRRb7VdalUVQDlFbmkr6rIVjt1+aig3SYIBWWWpHLOXwXlBVsMKypV1cMXJXgdHKurz8qR46Yq+XuO5rs/7sr7mTqsgJNYOCtR+lxybruZ9BeGra473OI9olYMfYDQsiqLb7RZFHhXwK8xv2z/MP8w/zP+HOXx26uc9VfqhGcUIUaFdk+SC/+QlRdc12QW9icz8kmSyxcbNCI7TNFt+b2TPU4/ZmVBU/gI6WfvEiN3jkF0uSeHiJ0xq0oPunmUFvFBN72BSbXmCOjmLntce09UwpKxy0B5wejR9K2fSXPzFU0nP3CREppgD4HgkZg/7keOTw10l5EgY5cd2w6tjTDipgbq3zrUdYapL/12D8WqYJhzns7lhsnK+aK9mwBwEcz/UA+UQOCn3Rhjp7XZj0IDhx93pdGbmVmyG2cPzEp/PnsSc5NSeJlaQmEgmbNJRkBJ0UA+gAcNUPX6Kg5xhhPMqWyUx9VMI2sPUakmMiEIvE0wPMs/zRQtNDn+KiYxHzcRn92JuocnD9hgRtQXNLOQ6Gzl5E4Eb/jTFnJEuMBmXacq6qScYp3HbeWRnwqM3zH4ZE5viQeaoaRwBpVZjvJdZpKrSnfAGYr5oordZtLEWiKBRi+axWJ/MK5j7OOVxV+ZsZQD8mcIQUcKgBXRDJ32nn7UgBwCsSRk07IECpMfsRPifKQIj494jvl7jYZwn4/oHJ9kCo1fDk2rmhcdZ9NxF/wGBy2CK+2pqVQAAAABJRU5ErkJggg==;" parent="1" vertex="1">
          <mxGeometry x="174.76" y="400" width="40.48" height="50" as="geometry" />
        </mxCell>
        <mxCell id="odyYIFGlpL0yZpM5AvX--22" value="Keycloak Admin UI&lt;br&gt;" style="text;html=1;strokeColor=none;fillColor=none;align=center;verticalAlign=middle;whiteSpace=wrap;rounded=0;fontSize=14;" parent="1" vertex="1">
          <mxGeometry x="130.24" y="583" width="79" height="20" as="geometry" />
        </mxCell>
        <mxCell id="odyYIFGlpL0yZpM5AvX--23" value="PreReg UI" style="text;html=1;strokeColor=none;fillColor=none;align=center;verticalAlign=middle;whiteSpace=wrap;rounded=0;fontSize=14;" parent="1" vertex="1">
          <mxGeometry x="150" y="623" width="40" height="20" as="geometry" />
        </mxCell>
        <mxCell id="odyYIFGlpL0yZpM5AvX--24" value="&lt;font style=&quot;font-size: 12px&quot;&gt;Keycloak&lt;/font&gt;" style="text;html=1;strokeColor=none;fillColor=none;align=center;verticalAlign=middle;whiteSpace=wrap;rounded=0;fontSize=12;" parent="1" vertex="1">
          <mxGeometry x="922" y="109.25" width="40" height="20" as="geometry" />
        </mxCell>
        <mxCell id="odyYIFGlpL0yZpM5AvX--25" value="ClamAV" style="text;html=1;strokeColor=none;fillColor=none;align=center;verticalAlign=middle;whiteSpace=wrap;rounded=0;fontSize=12;" parent="1" vertex="1">
          <mxGeometry x="864.75" y="47.25" width="40" height="20" as="geometry" />
        </mxCell>
        <mxCell id="OJW5nVKdZVnXqIisglxK-2" value="" style="endArrow=classic;html=1;exitX=0.245;exitY=0.586;exitDx=0;exitDy=0;exitPerimeter=0;entryX=0.759;entryY=0.604;entryDx=0;entryDy=0;entryPerimeter=0;" parent="1" source="oChWMdUvNmHhgxfBxgCT-29" target="oChWMdUvNmHhgxfBxgCT-47" edge="1">
          <mxGeometry width="50" height="50" relative="1" as="geometry">
            <mxPoint x="880" y="170" as="sourcePoint" />
            <mxPoint x="930" y="120" as="targetPoint" />
          </mxGeometry>
        </mxCell>
        <mxCell id="OJW5nVKdZVnXqIisglxK-3" value="" style="html=1;dashed=0;whitespace=wrap;fillColor=#2875E2;strokeColor=#ffffff;points=[[0.005,0.63,0],[0.1,0.2,0],[0.9,0.2,0],[0.5,0,0],[0.995,0.63,0],[0.72,0.99,0],[0.5,1,0],[0.28,0.99,0]];shape=mxgraph.kubernetes.icon;prIcon=pod;fontSize=15;" parent="1" vertex="1">
          <mxGeometry x="680" y="93.75" width="46" height="26" as="geometry" />
        </mxCell>
        <mxCell id="OJW5nVKdZVnXqIisglxK-4" value="Kernel Services" style="text;html=1;strokeColor=none;fillColor=none;align=center;verticalAlign=middle;whiteSpace=wrap;rounded=0;" parent="1" vertex="1">
          <mxGeometry x="600" y="67.25" width="100" height="20" as="geometry" />
        </mxCell>
        <mxCell id="OJW5nVKdZVnXqIisglxK-11" value="" style="html=1;dashed=0;whitespace=wrap;fillColor=#2875E2;strokeColor=#ffffff;points=[[0.005,0.63,0],[0.1,0.2,0],[0.9,0.2,0],[0.5,0,0],[0.995,0.63,0],[0.72,0.99,0],[0.5,1,0],[0.28,0.99,0]];shape=mxgraph.kubernetes.icon;prIcon=pod;fontSize=15;" parent="1" vertex="1">
          <mxGeometry x="562.5" y="162" width="36" height="26" as="geometry" />
        </mxCell>
        <mxCell id="OJW5nVKdZVnXqIisglxK-12" value="" style="html=1;dashed=0;whitespace=wrap;fillColor=#2875E2;strokeColor=#ffffff;points=[[0.005,0.63,0],[0.1,0.2,0],[0.9,0.2,0],[0.5,0,0],[0.995,0.63,0],[0.72,0.99,0],[0.5,1,0],[0.28,0.99,0]];shape=mxgraph.kubernetes.icon;prIcon=pod;fontSize=15;" parent="1" vertex="1">
          <mxGeometry x="598.5" y="162" width="46" height="26" as="geometry" />
        </mxCell>
        <mxCell id="OJW5nVKdZVnXqIisglxK-13" value="" style="html=1;dashed=0;whitespace=wrap;fillColor=#2875E2;strokeColor=#ffffff;points=[[0.005,0.63,0],[0.1,0.2,0],[0.9,0.2,0],[0.5,0,0],[0.995,0.63,0],[0.72,0.99,0],[0.5,1,0],[0.28,0.99,0]];shape=mxgraph.kubernetes.icon;prIcon=pod;fontSize=15;" parent="1" vertex="1">
          <mxGeometry x="638.5" y="160" width="46" height="26" as="geometry" />
        </mxCell>
        <mxCell id="OJW5nVKdZVnXqIisglxK-14" value="" style="html=1;dashed=0;whitespace=wrap;fillColor=#2875E2;strokeColor=#ffffff;points=[[0.005,0.63,0],[0.1,0.2,0],[0.9,0.2,0],[0.5,0,0],[0.995,0.63,0],[0.72,0.99,0],[0.5,1,0],[0.28,0.99,0]];shape=mxgraph.kubernetes.icon;prIcon=pod;fontSize=15;" parent="1" vertex="1">
          <mxGeometry x="680" y="160" width="46" height="26" as="geometry" />
        </mxCell>
        <mxCell id="OJW5nVKdZVnXqIisglxK-15" value="Pre Reg Services" style="text;html=1;strokeColor=none;fillColor=none;align=center;verticalAlign=middle;whiteSpace=wrap;rounded=0;" parent="1" vertex="1">
          <mxGeometry x="600" y="133.5" width="100" height="20" as="geometry" />
        </mxCell>
        <mxCell id="OJW5nVKdZVnXqIisglxK-16" value="" style="html=1;dashed=0;whitespace=wrap;fillColor=#2875E2;strokeColor=#ffffff;points=[[0.005,0.63,0],[0.1,0.2,0],[0.9,0.2,0],[0.5,0,0],[0.995,0.63,0],[0.72,0.99,0],[0.5,1,0],[0.28,0.99,0]];shape=mxgraph.kubernetes.icon;prIcon=pod;fontSize=15;" parent="1" vertex="1">
          <mxGeometry x="568.25" y="234.5" width="36" height="26" as="geometry" />
        </mxCell>
        <mxCell id="OJW5nVKdZVnXqIisglxK-17" value="" style="html=1;dashed=0;whitespace=wrap;fillColor=#2875E2;strokeColor=#ffffff;points=[[0.005,0.63,0],[0.1,0.2,0],[0.9,0.2,0],[0.5,0,0],[0.995,0.63,0],[0.72,0.99,0],[0.5,1,0],[0.28,0.99,0]];shape=mxgraph.kubernetes.icon;prIcon=pod;fontSize=15;" parent="1" vertex="1">
          <mxGeometry x="604.25" y="234.5" width="46" height="26" as="geometry" />
        </mxCell>
        <mxCell id="OJW5nVKdZVnXqIisglxK-18" value="" style="html=1;dashed=0;whitespace=wrap;fillColor=#2875E2;strokeColor=#ffffff;points=[[0.005,0.63,0],[0.1,0.2,0],[0.9,0.2,0],[0.5,0,0],[0.995,0.63,0],[0.72,0.99,0],[0.5,1,0],[0.28,0.99,0]];shape=mxgraph.kubernetes.icon;prIcon=pod;fontSize=15;" parent="1" vertex="1">
          <mxGeometry x="644.25" y="232.5" width="46" height="26" as="geometry" />
        </mxCell>
        <mxCell id="OJW5nVKdZVnXqIisglxK-19" value="" style="html=1;dashed=0;whitespace=wrap;fillColor=#2875E2;strokeColor=#ffffff;points=[[0.005,0.63,0],[0.1,0.2,0],[0.9,0.2,0],[0.5,0,0],[0.995,0.63,0],[0.72,0.99,0],[0.5,1,0],[0.28,0.99,0]];shape=mxgraph.kubernetes.icon;prIcon=pod;fontSize=15;" parent="1" vertex="1">
          <mxGeometry x="685.75" y="232.5" width="46" height="26" as="geometry" />
        </mxCell>
        <mxCell id="OJW5nVKdZVnXqIisglxK-20" value="Reg Proc Services" style="text;html=1;strokeColor=none;fillColor=none;align=center;verticalAlign=middle;whiteSpace=wrap;rounded=0;" parent="1" vertex="1">
          <mxGeometry x="600" y="206" width="105.75" height="20" as="geometry" />
        </mxCell>
        <mxCell id="OJW5nVKdZVnXqIisglxK-22" value="Mounted folder" style="text;html=1;strokeColor=none;fillColor=none;align=center;verticalAlign=middle;whiteSpace=wrap;rounded=0;" parent="1" vertex="1">
          <mxGeometry x="882" y="193.75" width="58" height="20" as="geometry" />
        </mxCell>
        <mxCell id="OJW5nVKdZVnXqIisglxK-25" value="Ingress" style="rounded=0;whiteSpace=wrap;html=1;" parent="1" vertex="1">
          <mxGeometry x="662" y="330" width="208" height="35" as="geometry" />
        </mxCell>
        <mxCell id="OJW5nVKdZVnXqIisglxK-26" value="Ingress" style="rounded=0;whiteSpace=wrap;html=1;" parent="1" vertex="1">
          <mxGeometry x="669.75" y="540" width="208" height="35" as="geometry" />
        </mxCell>
        <mxCell id="OJW5nVKdZVnXqIisglxK-27" value="" style="endArrow=classic;startArrow=classic;html=1;entryX=0.5;entryY=1;entryDx=0;entryDy=0;exitX=0.488;exitY=-0.008;exitDx=0;exitDy=0;exitPerimeter=0;" parent="1" source="oChWMdUvNmHhgxfBxgCT-10" target="oChWMdUvNmHhgxfBxgCT-6" edge="1">
          <mxGeometry width="50" height="50" relative="1" as="geometry">
            <mxPoint x="740" y="470" as="sourcePoint" />
            <mxPoint x="790" y="420" as="targetPoint" />
          </mxGeometry>
        </mxCell>
        <mxCell id="OJW5nVKdZVnXqIisglxK-29" value="Kubectl&amp;nbsp;&lt;br&gt;calls" style="text;html=1;strokeColor=none;fillColor=none;align=center;verticalAlign=middle;whiteSpace=wrap;rounded=0;" parent="1" vertex="1">
          <mxGeometry x="350" y="310" width="40" height="20" as="geometry" />
        </mxCell>
        <mxCell id="OJW5nVKdZVnXqIisglxK-30" value="Kubectl&amp;nbsp;&lt;br&gt;calls" style="text;html=1;strokeColor=none;fillColor=none;align=center;verticalAlign=middle;whiteSpace=wrap;rounded=0;" parent="1" vertex="1">
          <mxGeometry x="370" y="540" width="40" height="20" as="geometry" />
        </mxCell>
        <mxCell id="OJW5nVKdZVnXqIisglxK-31" value="" style="html=1;dashed=0;whitespace=wrap;fillColor=#2875E2;strokeColor=#ffffff;points=[[0.005,0.63,0],[0.1,0.2,0],[0.9,0.2,0],[0.5,0,0],[0.995,0.63,0],[0.72,0.99,0],[0.5,1,0],[0.28,0.99,0]];shape=mxgraph.kubernetes.icon;prIcon=pod;fontSize=15;" parent="1" vertex="1">
          <mxGeometry x="614.25" y="660" width="36" height="26" as="geometry" />
        </mxCell>
        <mxCell id="OJW5nVKdZVnXqIisglxK-32" value="Packet Uploader stage&lt;br&gt;" style="text;html=1;strokeColor=none;fillColor=none;align=center;verticalAlign=middle;whiteSpace=wrap;rounded=0;" parent="1" vertex="1">
          <mxGeometry x="580" y="633" width="100" height="20" as="geometry" />
        </mxCell>
        <mxCell id="OJW5nVKdZVnXqIisglxK-36" value="" style="html=1;dashed=0;whitespace=wrap;fillColor=#2875E2;strokeColor=#ffffff;points=[[0.005,0.63,0],[0.1,0.2,0],[0.9,0.2,0],[0.5,0,0],[0.995,0.63,0],[0.72,0.99,0],[0.5,1,0],[0.28,0.99,0]];shape=mxgraph.kubernetes.icon;prIcon=pod;fontSize=15;" parent="1" vertex="1">
          <mxGeometry x="720" y="660" width="36" height="26" as="geometry" />
        </mxCell>
        <mxCell id="OJW5nVKdZVnXqIisglxK-37" value="Reg Status Service" style="text;html=1;strokeColor=none;fillColor=none;align=center;verticalAlign=middle;whiteSpace=wrap;rounded=0;" parent="1" vertex="1">
          <mxGeometry x="685.75" y="633" width="100" height="20" as="geometry" />
        </mxCell>
        <mxCell id="OJW5nVKdZVnXqIisglxK-38" value="" style="html=1;dashed=0;whitespace=wrap;fillColor=#2875E2;strokeColor=#ffffff;points=[[0.005,0.63,0],[0.1,0.2,0],[0.9,0.2,0],[0.5,0,0],[0.995,0.63,0],[0.72,0.99,0],[0.5,1,0],[0.28,0.99,0]];shape=mxgraph.kubernetes.icon;prIcon=pod;fontSize=15;" parent="1" vertex="1">
          <mxGeometry x="816.25" y="660" width="36" height="26" as="geometry" />
        </mxCell>
        <mxCell id="OJW5nVKdZVnXqIisglxK-39" value="Camel" style="text;html=1;strokeColor=none;fillColor=none;align=center;verticalAlign=middle;whiteSpace=wrap;rounded=0;" parent="1" vertex="1">
          <mxGeometry x="782" y="633" width="100" height="20" as="geometry" />
        </mxCell>
        <mxCell id="OJW5nVKdZVnXqIisglxK-46" value="HDFS cluster" style="outlineConnect=0;fontColor=#232F3E;gradientColor=none;strokeColor=#232F3E;fillColor=#ffffff;dashed=0;verticalLabelPosition=bottom;verticalAlign=top;align=center;html=1;fontSize=12;fontStyle=0;aspect=fixed;shape=mxgraph.aws4.resourceIcon;resIcon=mxgraph.aws4.hdfs_cluster;" parent="1" vertex="1">
          <mxGeometry x="888.25" y="243" width="60" height="60" as="geometry" />
        </mxCell>
        <mxCell id="OJW5nVKdZVnXqIisglxK-48" value="" style="outlineConnect=0;fontColor=#232F3E;gradientColor=none;fillColor=#BC1356;strokeColor=none;dashed=0;verticalLabelPosition=bottom;verticalAlign=top;align=center;html=1;fontSize=12;fontStyle=0;aspect=fixed;pointerEvents=1;shape=mxgraph.aws4.queue;" parent="1" vertex="1">
          <mxGeometry x="779.5" y="80.25" width="29.87" height="18" as="geometry" />
        </mxCell>
        <mxCell id="OJW5nVKdZVnXqIisglxK-49" value="ActiveMQ" style="text;html=1;strokeColor=none;fillColor=none;align=center;verticalAlign=middle;whiteSpace=wrap;rounded=0;" parent="1" vertex="1">
          <mxGeometry x="767" y="52" width="40" height="20" as="geometry" />
        </mxCell>
      </root>
    </mxGraphModel>
  </diagram>
</mxfile>
